<mxfile host="app.diagrams.net" modified="2022-07-22T09:17:20.625Z" agent="5.0 (Windows NT 10.0; Win64; x64) AppleWebKit/537.36 (KHTML, like Gecko) Chrome/103.0.5060.114 Safari/537.36 Edg/103.0.1264.62" etag="-poK6R24GFor3prGPKyt" version="20.1.4" type="github">
  <diagram id="0pjU3X7fNCyHAQ0M_Ns7" name="第 1 页">
    <mxGraphModel dx="2585" dy="2613" grid="1" gridSize="10" guides="1" tooltips="1" connect="1" arrows="1" fold="1" page="1" pageScale="1" pageWidth="827" pageHeight="1169" math="0" shadow="0">
      <root>
        <mxCell id="0" />
        <mxCell id="1" parent="0" />
        <mxCell id="p2S-ftZfhc2I-dQ0Z8ts-49" style="edgeStyle=none;rounded=0;orthogonalLoop=1;jettySize=auto;html=1;exitX=0.5;exitY=0;exitDx=0;exitDy=0;entryX=0;entryY=0.5;entryDx=0;entryDy=0;fontSize=20;fontColor=#3333FF;strokeColor=#3333FF;" edge="1" parent="1" source="p2S-ftZfhc2I-dQ0Z8ts-1" target="p2S-ftZfhc2I-dQ0Z8ts-13">
          <mxGeometry relative="1" as="geometry" />
        </mxCell>
        <mxCell id="p2S-ftZfhc2I-dQ0Z8ts-50" style="edgeStyle=none;rounded=0;orthogonalLoop=1;jettySize=auto;html=1;exitX=0.5;exitY=0;exitDx=0;exitDy=0;entryX=0;entryY=0.5;entryDx=0;entryDy=0;fontSize=20;fontColor=#3333FF;strokeColor=#FF3333;" edge="1" parent="1" source="p2S-ftZfhc2I-dQ0Z8ts-1" target="p2S-ftZfhc2I-dQ0Z8ts-14">
          <mxGeometry relative="1" as="geometry" />
        </mxCell>
        <mxCell id="p2S-ftZfhc2I-dQ0Z8ts-1" value="&lt;b&gt;&lt;font color=&quot;#ff3333&quot; style=&quot;font-size: 20px;&quot;&gt;R1&lt;/font&gt;&lt;/b&gt;" style="rounded=0;whiteSpace=wrap;html=1;" vertex="1" parent="1">
          <mxGeometry x="40" y="80" width="80" height="40" as="geometry" />
        </mxCell>
        <mxCell id="p2S-ftZfhc2I-dQ0Z8ts-39" style="edgeStyle=none;rounded=0;orthogonalLoop=1;jettySize=auto;html=1;exitX=0.5;exitY=0;exitDx=0;exitDy=0;entryX=0.5;entryY=1;entryDx=0;entryDy=0;fontSize=20;fontColor=#3333FF;strokeColor=#3333FF;" edge="1" parent="1" source="p2S-ftZfhc2I-dQ0Z8ts-8" target="p2S-ftZfhc2I-dQ0Z8ts-13">
          <mxGeometry relative="1" as="geometry" />
        </mxCell>
        <mxCell id="p2S-ftZfhc2I-dQ0Z8ts-44" style="edgeStyle=none;rounded=0;orthogonalLoop=1;jettySize=auto;html=1;exitX=0.5;exitY=0;exitDx=0;exitDy=0;fontSize=20;fontColor=#3333FF;strokeColor=#3333FF;" edge="1" parent="1" source="p2S-ftZfhc2I-dQ0Z8ts-8">
          <mxGeometry relative="1" as="geometry">
            <mxPoint x="460" y="280" as="targetPoint" />
          </mxGeometry>
        </mxCell>
        <mxCell id="p2S-ftZfhc2I-dQ0Z8ts-8" value="&lt;b&gt;&lt;font color=&quot;#ff3333&quot; style=&quot;font-size: 20px;&quot;&gt;R2&lt;/font&gt;&lt;/b&gt;" style="rounded=0;whiteSpace=wrap;html=1;" vertex="1" parent="1">
          <mxGeometry x="40" y="480" width="80" height="40" as="geometry" />
        </mxCell>
        <mxCell id="p2S-ftZfhc2I-dQ0Z8ts-43" style="edgeStyle=none;rounded=0;orthogonalLoop=1;jettySize=auto;html=1;exitX=0.5;exitY=0;exitDx=0;exitDy=0;fontSize=20;fontColor=#3333FF;strokeColor=#3333FF;entryX=0.5;entryY=1;entryDx=0;entryDy=0;" edge="1" parent="1" source="p2S-ftZfhc2I-dQ0Z8ts-9" target="p2S-ftZfhc2I-dQ0Z8ts-14">
          <mxGeometry relative="1" as="geometry">
            <mxPoint x="480" y="320" as="targetPoint" />
          </mxGeometry>
        </mxCell>
        <mxCell id="p2S-ftZfhc2I-dQ0Z8ts-45" style="edgeStyle=none;rounded=0;orthogonalLoop=1;jettySize=auto;html=1;exitX=0.5;exitY=0;exitDx=0;exitDy=0;entryX=0.5;entryY=1;entryDx=0;entryDy=0;fontSize=20;fontColor=#3333FF;strokeColor=#FF3333;" edge="1" parent="1" source="p2S-ftZfhc2I-dQ0Z8ts-9" target="p2S-ftZfhc2I-dQ0Z8ts-13">
          <mxGeometry relative="1" as="geometry" />
        </mxCell>
        <mxCell id="p2S-ftZfhc2I-dQ0Z8ts-9" value="&lt;b&gt;&lt;font color=&quot;#ff3333&quot; style=&quot;font-size: 20px;&quot;&gt;R3&lt;/font&gt;&lt;/b&gt;" style="rounded=0;whiteSpace=wrap;html=1;" vertex="1" parent="1">
          <mxGeometry x="560" y="480" width="80" height="40" as="geometry" />
        </mxCell>
        <mxCell id="p2S-ftZfhc2I-dQ0Z8ts-53" style="edgeStyle=none;rounded=0;orthogonalLoop=1;jettySize=auto;html=1;exitX=0.5;exitY=0;exitDx=0;exitDy=0;entryX=1;entryY=0.5;entryDx=0;entryDy=0;fontSize=20;fontColor=#3333FF;strokeColor=#3333FF;" edge="1" parent="1" source="p2S-ftZfhc2I-dQ0Z8ts-10" target="p2S-ftZfhc2I-dQ0Z8ts-14">
          <mxGeometry relative="1" as="geometry" />
        </mxCell>
        <mxCell id="p2S-ftZfhc2I-dQ0Z8ts-54" style="edgeStyle=none;rounded=0;orthogonalLoop=1;jettySize=auto;html=1;exitX=0.5;exitY=0;exitDx=0;exitDy=0;entryX=0.5;entryY=1;entryDx=0;entryDy=0;fontSize=20;fontColor=#3333FF;strokeColor=#FF3333;" edge="1" parent="1" source="p2S-ftZfhc2I-dQ0Z8ts-10" target="p2S-ftZfhc2I-dQ0Z8ts-13">
          <mxGeometry relative="1" as="geometry" />
        </mxCell>
        <mxCell id="p2S-ftZfhc2I-dQ0Z8ts-10" value="&lt;b&gt;&lt;font color=&quot;#ff3333&quot; style=&quot;font-size: 20px;&quot;&gt;R4&lt;/font&gt;&lt;/b&gt;" style="rounded=0;whiteSpace=wrap;html=1;" vertex="1" parent="1">
          <mxGeometry x="560" y="280" width="80" height="40" as="geometry" />
        </mxCell>
        <mxCell id="p2S-ftZfhc2I-dQ0Z8ts-55" style="edgeStyle=none;rounded=0;orthogonalLoop=1;jettySize=auto;html=1;exitX=0.5;exitY=0;exitDx=0;exitDy=0;entryX=0;entryY=0.5;entryDx=0;entryDy=0;fontSize=20;fontColor=#3333FF;strokeColor=#3333FF;" edge="1" parent="1" source="p2S-ftZfhc2I-dQ0Z8ts-11" target="p2S-ftZfhc2I-dQ0Z8ts-14">
          <mxGeometry relative="1" as="geometry" />
        </mxCell>
        <mxCell id="p2S-ftZfhc2I-dQ0Z8ts-56" style="edgeStyle=none;rounded=0;orthogonalLoop=1;jettySize=auto;html=1;exitX=0.5;exitY=0;exitDx=0;exitDy=0;fontSize=20;fontColor=#3333FF;strokeColor=#3333FF;" edge="1" parent="1" source="p2S-ftZfhc2I-dQ0Z8ts-11">
          <mxGeometry relative="1" as="geometry">
            <mxPoint x="200" y="80.00000000000023" as="targetPoint" />
          </mxGeometry>
        </mxCell>
        <mxCell id="p2S-ftZfhc2I-dQ0Z8ts-11" value="&lt;b&gt;&lt;font color=&quot;#ff3333&quot; style=&quot;font-size: 20px;&quot;&gt;R5&lt;/font&gt;&lt;/b&gt;" style="rounded=0;whiteSpace=wrap;html=1;" vertex="1" parent="1">
          <mxGeometry x="280" y="280" width="80" height="40" as="geometry" />
        </mxCell>
        <mxCell id="p2S-ftZfhc2I-dQ0Z8ts-51" style="edgeStyle=none;rounded=0;orthogonalLoop=1;jettySize=auto;html=1;exitX=0.5;exitY=0;exitDx=0;exitDy=0;entryX=1;entryY=0.5;entryDx=0;entryDy=0;fontSize=20;fontColor=#3333FF;strokeColor=#3333FF;" edge="1" parent="1" source="p2S-ftZfhc2I-dQ0Z8ts-12" target="p2S-ftZfhc2I-dQ0Z8ts-13">
          <mxGeometry relative="1" as="geometry" />
        </mxCell>
        <mxCell id="p2S-ftZfhc2I-dQ0Z8ts-52" style="edgeStyle=none;rounded=0;orthogonalLoop=1;jettySize=auto;html=1;exitX=1;exitY=0.5;exitDx=0;exitDy=0;entryX=0.5;entryY=0;entryDx=0;entryDy=0;fontSize=20;fontColor=#3333FF;strokeColor=#FF3333;" edge="1" parent="1" source="p2S-ftZfhc2I-dQ0Z8ts-12" target="p2S-ftZfhc2I-dQ0Z8ts-14">
          <mxGeometry relative="1" as="geometry" />
        </mxCell>
        <mxCell id="p2S-ftZfhc2I-dQ0Z8ts-12" value="&lt;b&gt;&lt;font color=&quot;#ff3333&quot; style=&quot;font-size: 20px;&quot;&gt;R0&lt;/font&gt;&lt;/b&gt;" style="rounded=0;whiteSpace=wrap;html=1;" vertex="1" parent="1">
          <mxGeometry x="280" y="80" width="80" height="40" as="geometry" />
        </mxCell>
        <mxCell id="p2S-ftZfhc2I-dQ0Z8ts-13" value="&lt;b&gt;&lt;font color=&quot;#3333ff&quot; style=&quot;font-size: 20px;&quot;&gt;D1&lt;/font&gt;&lt;/b&gt;" style="rounded=0;whiteSpace=wrap;html=1;" vertex="1" parent="1">
          <mxGeometry x="160" y="40" width="80" height="40" as="geometry" />
        </mxCell>
        <mxCell id="p2S-ftZfhc2I-dQ0Z8ts-14" value="&lt;b&gt;&lt;font color=&quot;#3333ff&quot; style=&quot;font-size: 20px;&quot;&gt;D0&lt;/font&gt;&lt;/b&gt;" style="rounded=0;whiteSpace=wrap;html=1;" vertex="1" parent="1">
          <mxGeometry x="420" y="240" width="80" height="40" as="geometry" />
        </mxCell>
        <mxCell id="p2S-ftZfhc2I-dQ0Z8ts-16" value="" style="endArrow=none;html=1;rounded=0;fontSize=20;fontColor=#3333FF;exitX=0.5;exitY=0;exitDx=0;exitDy=0;strokeColor=#000000;" edge="1" parent="1" source="p2S-ftZfhc2I-dQ0Z8ts-8">
          <mxGeometry width="50" height="50" relative="1" as="geometry">
            <mxPoint x="80" y="470" as="sourcePoint" />
            <mxPoint x="80" y="120" as="targetPoint" />
          </mxGeometry>
        </mxCell>
        <mxCell id="p2S-ftZfhc2I-dQ0Z8ts-21" value="" style="endArrow=none;html=1;rounded=0;fontSize=20;fontColor=#3333FF;entryX=0;entryY=0.5;entryDx=0;entryDy=0;strokeColor=#000000;" edge="1" parent="1" target="p2S-ftZfhc2I-dQ0Z8ts-9">
          <mxGeometry width="50" height="50" relative="1" as="geometry">
            <mxPoint x="120" y="500" as="sourcePoint" />
            <mxPoint x="170" y="450" as="targetPoint" />
          </mxGeometry>
        </mxCell>
        <mxCell id="p2S-ftZfhc2I-dQ0Z8ts-27" value="" style="endArrow=none;html=1;rounded=0;fontSize=20;fontColor=#3333FF;entryX=0.5;entryY=1;entryDx=0;entryDy=0;strokeColor=#000000;" edge="1" parent="1" target="p2S-ftZfhc2I-dQ0Z8ts-10">
          <mxGeometry width="50" height="50" relative="1" as="geometry">
            <mxPoint x="600" y="480" as="sourcePoint" />
            <mxPoint x="650" y="430" as="targetPoint" />
          </mxGeometry>
        </mxCell>
        <mxCell id="p2S-ftZfhc2I-dQ0Z8ts-28" value="" style="endArrow=none;html=1;rounded=0;fontSize=20;fontColor=#3333FF;entryX=0.5;entryY=1;entryDx=0;entryDy=0;strokeColor=#000000;" edge="1" parent="1">
          <mxGeometry width="50" height="50" relative="1" as="geometry">
            <mxPoint x="319.5" y="280" as="sourcePoint" />
            <mxPoint x="319.5" y="120" as="targetPoint" />
          </mxGeometry>
        </mxCell>
        <mxCell id="p2S-ftZfhc2I-dQ0Z8ts-29" value="" style="endArrow=none;html=1;rounded=0;fontSize=20;fontColor=#3333FF;strokeColor=#000000;" edge="1" parent="1">
          <mxGeometry width="50" height="50" relative="1" as="geometry">
            <mxPoint x="120" y="99.5" as="sourcePoint" />
            <mxPoint x="280" y="100" as="targetPoint" />
          </mxGeometry>
        </mxCell>
        <mxCell id="p2S-ftZfhc2I-dQ0Z8ts-30" value="" style="endArrow=none;html=1;rounded=0;fontSize=20;fontColor=#3333FF;entryX=0;entryY=0.5;entryDx=0;entryDy=0;strokeColor=#000000;" edge="1" parent="1" target="p2S-ftZfhc2I-dQ0Z8ts-10">
          <mxGeometry width="50" height="50" relative="1" as="geometry">
            <mxPoint x="360" y="300" as="sourcePoint" />
            <mxPoint x="410" y="250" as="targetPoint" />
          </mxGeometry>
        </mxCell>
        <mxCell id="p2S-ftZfhc2I-dQ0Z8ts-57" value="&lt;div style=&quot;text-align: left; font-size: 19px;&quot;&gt;&lt;span style=&quot;background-color: initial;&quot;&gt;&lt;font style=&quot;font-size: 19px;&quot; color=&quot;#000000&quot;&gt;黑线：房间边线&lt;/font&gt;&lt;/span&gt;&lt;/div&gt;&lt;div style=&quot;text-align: left; font-size: 19px;&quot;&gt;&lt;span style=&quot;background-color: initial;&quot;&gt;&lt;font style=&quot;font-size: 19px;&quot; color=&quot;#000000&quot;&gt;R:房间边界点&lt;/font&gt;&lt;/span&gt;&lt;/div&gt;&lt;div style=&quot;text-align: left; font-size: 19px;&quot;&gt;&lt;span style=&quot;background-color: initial;&quot;&gt;&lt;font style=&quot;font-size: 19px;&quot; color=&quot;#000000&quot;&gt;D:门点&lt;/font&gt;&lt;/span&gt;&lt;/div&gt;&lt;div style=&quot;text-align: left; font-size: 19px;&quot;&gt;&lt;font style=&quot;font-size: 19px;&quot; color=&quot;#000000&quot;&gt;墙直接到门的线：红线和蓝线&lt;span style=&quot;background-color: initial;&quot;&gt;&lt;br&gt;&lt;/span&gt;&lt;/font&gt;&lt;/div&gt;&lt;div style=&quot;text-align: left; font-size: 19px;&quot;&gt;&lt;span style=&quot;background-color: initial;&quot;&gt;&lt;font style=&quot;font-size: 19px;&quot; color=&quot;#000000&quot;&gt;红线:穿墙的线，应剔除&lt;/font&gt;&lt;/span&gt;&lt;/div&gt;&lt;div style=&quot;text-align: left; font-size: 19px;&quot;&gt;&lt;span style=&quot;background-color: initial;&quot;&gt;&lt;font style=&quot;font-size: 19px;&quot; color=&quot;#000000&quot;&gt;蓝线：可通过路径，墙到门&lt;/font&gt;&lt;/span&gt;&lt;/div&gt;&lt;div style=&quot;text-align: left; font-size: 19px;&quot;&gt;&lt;span style=&quot;background-color: initial;&quot;&gt;&lt;font style=&quot;font-size: 19px;&quot; color=&quot;#000000&quot;&gt;虚线：墙墙连线，红色穿墙，青色可行&lt;/font&gt;&lt;/span&gt;&lt;/div&gt;&lt;div style=&quot;text-align: left; font-size: 19px;&quot;&gt;&lt;span style=&quot;background-color: initial;&quot;&gt;&lt;font style=&quot;font-size: 19px;&quot; color=&quot;#000000&quot;&gt;判定规则：&lt;/font&gt;&lt;/span&gt;&lt;/div&gt;&lt;div style=&quot;text-align: left; font-size: 19px;&quot;&gt;&lt;font style=&quot;font-size: 19px;&quot;&gt;&lt;span style=&quot;background-color: initial;&quot;&gt;&lt;font style=&quot;font-size: 19px;&quot; color=&quot;#000000&quot;&gt;对于某个疏散门，&lt;/font&gt;&lt;/span&gt;&lt;span style=&quot;color: rgb(0, 0, 0); background-color: initial;&quot;&gt;墙若可直达该房间门点，则可不考虑与其他墙相连&lt;/span&gt;&lt;/font&gt;&lt;/div&gt;" style="rounded=1;whiteSpace=wrap;html=1;fontSize=20;fontColor=#3333FF;" vertex="1" parent="1">
          <mxGeometry x="40" y="-290" width="623" height="270" as="geometry" />
        </mxCell>
        <mxCell id="p2S-ftZfhc2I-dQ0Z8ts-61" value="" style="endArrow=none;dashed=1;html=1;rounded=0;fontSize=20;fontColor=#3333FF;strokeColor=#006666;entryX=0.5;entryY=1;entryDx=0;entryDy=0;exitX=0;exitY=0.5;exitDx=0;exitDy=0;" edge="1" parent="1" source="p2S-ftZfhc2I-dQ0Z8ts-11" target="p2S-ftZfhc2I-dQ0Z8ts-1">
          <mxGeometry width="50" height="50" relative="1" as="geometry">
            <mxPoint x="350" y="250" as="sourcePoint" />
            <mxPoint x="400" y="200" as="targetPoint" />
          </mxGeometry>
        </mxCell>
        <mxCell id="p2S-ftZfhc2I-dQ0Z8ts-62" value="" style="endArrow=none;dashed=1;html=1;rounded=0;fontSize=20;fontColor=#FF3333;strokeColor=#FF3333;exitX=0.5;exitY=0;exitDx=0;exitDy=0;labelBorderColor=#FF3333;labelBackgroundColor=#FF3333;" edge="1" parent="1" source="p2S-ftZfhc2I-dQ0Z8ts-9">
          <mxGeometry width="50" height="50" relative="1" as="geometry">
            <mxPoint x="350" y="250" as="sourcePoint" />
            <mxPoint x="80" y="120" as="targetPoint" />
          </mxGeometry>
        </mxCell>
        <mxCell id="p2S-ftZfhc2I-dQ0Z8ts-63" value="" style="endArrow=none;dashed=1;html=1;rounded=0;fontSize=20;fontColor=#3333FF;strokeColor=#006666;entryX=0.5;entryY=1;entryDx=0;entryDy=0;exitX=0.5;exitY=0;exitDx=0;exitDy=0;" edge="1" parent="1" source="p2S-ftZfhc2I-dQ0Z8ts-8" target="p2S-ftZfhc2I-dQ0Z8ts-12">
          <mxGeometry width="50" height="50" relative="1" as="geometry">
            <mxPoint x="420" y="660" as="sourcePoint" />
            <mxPoint x="220" y="480" as="targetPoint" />
          </mxGeometry>
        </mxCell>
        <mxCell id="p2S-ftZfhc2I-dQ0Z8ts-64" value="" style="endArrow=none;dashed=1;html=1;rounded=0;fontSize=20;fontColor=#3333FF;strokeColor=#006666;entryX=0.5;entryY=1;entryDx=0;entryDy=0;exitX=0.5;exitY=0;exitDx=0;exitDy=0;" edge="1" parent="1" source="p2S-ftZfhc2I-dQ0Z8ts-8" target="p2S-ftZfhc2I-dQ0Z8ts-11">
          <mxGeometry width="50" height="50" relative="1" as="geometry">
            <mxPoint x="120" y="500" as="sourcePoint" />
            <mxPoint x="360" y="140" as="targetPoint" />
          </mxGeometry>
        </mxCell>
        <mxCell id="p2S-ftZfhc2I-dQ0Z8ts-65" value="" style="endArrow=none;dashed=1;html=1;rounded=0;fontSize=20;fontColor=#3333FF;strokeColor=#006666;entryX=0.5;entryY=1;entryDx=0;entryDy=0;exitX=0.5;exitY=0;exitDx=0;exitDy=0;" edge="1" parent="1" source="p2S-ftZfhc2I-dQ0Z8ts-8" target="p2S-ftZfhc2I-dQ0Z8ts-10">
          <mxGeometry width="50" height="50" relative="1" as="geometry">
            <mxPoint x="90" y="490" as="sourcePoint" />
            <mxPoint x="330" y="330" as="targetPoint" />
          </mxGeometry>
        </mxCell>
        <mxCell id="p2S-ftZfhc2I-dQ0Z8ts-66" value="" style="endArrow=none;dashed=1;html=1;rounded=0;fontSize=20;fontColor=#3333FF;strokeColor=#006666;entryX=0.5;entryY=0;entryDx=0;entryDy=0;exitX=0.5;exitY=1;exitDx=0;exitDy=0;" edge="1" parent="1" source="p2S-ftZfhc2I-dQ0Z8ts-11" target="p2S-ftZfhc2I-dQ0Z8ts-9">
          <mxGeometry width="50" height="50" relative="1" as="geometry">
            <mxPoint x="90" y="490" as="sourcePoint" />
            <mxPoint x="610" y="330" as="targetPoint" />
          </mxGeometry>
        </mxCell>
        <mxCell id="p2S-ftZfhc2I-dQ0Z8ts-67" value="" style="endArrow=none;dashed=1;html=1;rounded=0;fontSize=20;fontColor=#3333FF;strokeColor=#FF3333;" edge="1" parent="1">
          <mxGeometry width="50" height="50" relative="1" as="geometry">
            <mxPoint x="320" y="120" as="sourcePoint" />
            <mxPoint x="600" y="480" as="targetPoint" />
          </mxGeometry>
        </mxCell>
        <mxCell id="p2S-ftZfhc2I-dQ0Z8ts-68" value="" style="endArrow=none;dashed=1;html=1;rounded=0;fontSize=20;fontColor=#3333FF;strokeColor=#FF3333;entryX=0.5;entryY=0;entryDx=0;entryDy=0;exitX=1;exitY=0.5;exitDx=0;exitDy=0;" edge="1" parent="1" source="p2S-ftZfhc2I-dQ0Z8ts-12" target="p2S-ftZfhc2I-dQ0Z8ts-10">
          <mxGeometry width="50" height="50" relative="1" as="geometry">
            <mxPoint x="330" y="130" as="sourcePoint" />
            <mxPoint x="610" y="490" as="targetPoint" />
          </mxGeometry>
        </mxCell>
        <mxCell id="p2S-ftZfhc2I-dQ0Z8ts-69" value="" style="endArrow=none;dashed=1;html=1;rounded=0;fontSize=20;fontColor=#FF3333;strokeColor=#FF3333;exitX=0.5;exitY=0;exitDx=0;exitDy=0;labelBorderColor=#FF3333;labelBackgroundColor=#FF3333;" edge="1" parent="1" source="p2S-ftZfhc2I-dQ0Z8ts-10">
          <mxGeometry width="50" height="50" relative="1" as="geometry">
            <mxPoint x="610" y="489.99999999999955" as="sourcePoint" />
            <mxPoint x="80" y="120" as="targetPoint" />
          </mxGeometry>
        </mxCell>
      </root>
    </mxGraphModel>
  </diagram>
</mxfile>
